<?xml version="1.0" encoding="UTF-8"?>
<svg version="1.1" xmlns="http://www.w3.org/2000/svg" width="100" height="100">
<path d="M0 0 C4.23192498 2.38204161 5.81607514 4.99286597 7.6875 9.4375 C7.9375 12.375 7.9375 12.375 7.6875 14.4375 C9.234375 14.4684375 9.234375 14.4684375 10.8125 14.5 C15.24655316 15.5727548 16.86974236 16.71941695 19.5703125 20.28125 C21.6836485 24.36013626 21.8199461 28.01956212 20.6875 32.4375 C18.82066805 35.60989417 16.34906208 37.91943083 13.6875 40.4375 C12.85347656 41.30375 12.01945312 42.17 11.16015625 43.0625 C-6.60106981 61.40982103 -6.60106981 61.40982103 -18.5078125 61.6484375 C-19.47074219 61.67679688 -20.43367188 61.70515625 -21.42578125 61.734375 C-23.44121439 61.78665602 -25.45687231 61.83086707 -27.47265625 61.8671875 C-28.91318359 61.91359375 -28.91318359 61.91359375 -30.3828125 61.9609375 C-31.25695801 61.98075684 -32.13110352 62.00057617 -33.03173828 62.02099609 C-35.71958649 62.51184056 -36.6183173 63.34770725 -38.3125 65.4375 C-37.9825 65.7675 -37.6525 66.0975 -37.3125 66.4375 C-37.125 68.875 -37.125 68.875 -37.3125 71.4375 C-39.3125 73.4375 -39.3125 73.4375 -41.5378418 73.9206543 C-45.66383087 73.20219126 -47.87689201 70.58788757 -50.70703125 67.70703125 C-51.59535896 66.82587898 -51.59535896 66.82587898 -52.50163269 65.92692566 C-53.74902579 64.68293148 -54.99014092 63.43261473 -56.2253418 62.17651367 C-58.11839121 60.25670222 -60.03660655 58.36500088 -61.95898438 56.47460938 C-63.16827308 55.26201658 -64.3760098 54.04787364 -65.58203125 52.83203125 C-66.15693802 52.26724564 -66.73184479 51.70246002 -67.32417297 51.12055969 C-69.68248709 48.69136957 -71.20581942 47.05014517 -71.7956543 43.6628418 C-71.3125 41.4375 -71.3125 41.4375 -69.3125 39.4375 C-68.260625 39.705625 -67.20875 39.97375 -66.125 40.25 C-62.47551638 40.82461108 -62.47551638 40.82461108 -60.578125 39.19921875 C-59.40039776 37.98097337 -58.25073179 36.73519826 -57.125 35.46875 C-55.31892524 33.4447007 -53.43098239 31.70435987 -51.375 29.9375 C-49.27749348 28.13380763 -47.18950127 26.32684523 -45.1328125 24.4765625 C-44.42898437 23.84492187 -43.72515625 23.21328125 -43 22.5625 C-42.36449219 21.98757812 -41.72898437 21.41265625 -41.07421875 20.8203125 C-37.74707392 18.20876202 -34.68793866 18.32720072 -30.625 18.375 C-29.63113281 18.38402344 -28.63726562 18.39304687 -27.61328125 18.40234375 C-26.47439453 18.41974609 -26.47439453 18.41974609 -25.3125 18.4375 C-25.374375 17.24125 -25.43625 16.045 -25.5 14.8125 C-25.47450973 9.99483844 -24.35796268 6.50531747 -20.8828125 2.9921875 C-14.71635151 -2.37662182 -7.49520238 -3.28441452 0 0 Z M-16.3125 12.4375 C-16.3125 15.68041156 -15.89953627 17.54149726 -14.125 20.25 C-11.41649726 22.02453627 -9.55541156 22.4375 -6.3125 22.4375 C-3.20899551 20.58408666 -3.20899551 20.58408666 -1.3125 17.4375 C-1.24549429 13.55116864 -1.42461839 11.42051178 -4.0625 8.5 C-9.7044058 5.83576671 -12.69220327 7.53945148 -16.3125 12.4375 Z M3.6875 25.4375 C3.6875 26.0975 3.6875 26.7575 3.6875 27.4375 C3.10355469 27.69015625 2.51960938 27.9428125 1.91796875 28.203125 C-0.56877668 29.57932737 -2.07460766 31.10468564 -4 33.1875 C-14.45790924 43.6837166 -14.45790924 43.6837166 -23.29272461 43.84179688 C-26.30679295 43.79939 -29.30609793 43.65139422 -32.3125 43.4375 C-33.4375 38.6875 -33.4375 38.6875 -32.3125 36.4375 C-29.6953125 36.09375 -29.6953125 36.09375 -26.4375 35.9375 C-21.56643659 35.73093551 -21.56643659 35.73093551 -17.3125 33.4375 C-17.8075 30.9625 -17.8075 30.9625 -18.3125 28.4375 C-21.47259533 27.38413489 -23.8678136 27.23717112 -27.1875 27.1875 C-28.21617188 27.16171875 -29.24484375 27.1359375 -30.3046875 27.109375 C-35.58890253 27.68583482 -38.88977613 30.76404752 -42.51953125 34.44921875 C-43.27041016 35.20654297 -44.02128906 35.96386719 -44.79492188 36.74414062 C-45.56384766 37.52982422 -46.33277344 38.31550781 -47.125 39.125 C-47.91326172 39.92228516 -48.70152344 40.71957031 -49.51367188 41.54101562 C-51.45122585 43.5020551 -53.38394276 45.46761881 -55.3125 47.4375 C-53.80303489 50.61836518 -52.23308175 52.73619906 -49.6875 55.1875 C-49.05585937 55.80109375 -48.42421875 56.4146875 -47.7734375 57.046875 C-47.29132812 57.50578125 -46.80921875 57.9646875 -46.3125 58.4375 C-44.93578125 57.21933594 -44.93578125 57.21933594 -43.53125 55.9765625 C-38.59724668 52.45475631 -33.68780441 52.76736322 -27.8125 52.8125 C-16.23356575 52.82792301 -16.23356575 52.82792301 -6.50390625 46.984375 C-5.63636719 46.06140625 -4.76882812 45.1384375 -3.875 44.1875 C-0.03231145 40.17470454 3.89481948 36.37763791 8.12890625 32.77734375 C9.36253179 31.71685864 10.53718251 30.58781749 11.6875 29.4375 C11.36708603 26.83469432 11.36708603 26.83469432 10.6875 24.4375 C7.20168144 23.2354936 7.00757656 23.22411563 3.6875 25.4375 Z " fill="#104A5E" transform="translate(75.3125,22.5625)"/>
<path d="M0 0 C4.12593192 2.87855716 7.06537651 6.00862953 8.6875 10.875 C9.25474124 16.6019548 8.93131086 20.95335594 5.6875 25.875 C2.36915991 29.82113416 -0.21271341 31.91277612 -5.3125 32.875 C-10.83055775 32.86612852 -15.97581275 32.57393912 -20.3125 28.875 C-24.81143042 22.8764261 -25.99259355 18.21749148 -25.3125 10.875 C-23.48715409 5.60177847 -20.70530797 3.07808914 -16.3125 -0.125 C-10.91330143 -1.92473286 -5.37692735 -1.82612627 0 0 Z M-16.3125 12.875 C-16.3125 16.44686665 -16.05842267 18.75611599 -14.0625 21.75 C-11.7141813 23.25963345 -10.11325852 23.74163055 -7.3125 23.875 C-4.46148006 22.615247 -2.7826972 21.51617799 -0.9375 19 C-0.10708416 16.17658614 -0.34085148 14.65113862 -1.3125 11.875 C-3.47324795 8.91397503 -4.62812954 8.00604966 -8.25 7.3125 C-12.43428713 8.08104253 -13.88177503 9.41305838 -16.3125 12.875 Z " fill="#104A5E" transform="translate(33.3125,5.125)"/>
</svg>
